<mxfile host="app.diagrams.net" modified="2021-04-07T01:46:36.366Z" agent="5.0 (Windows NT 10.0; Win64; x64) AppleWebKit/537.36 (KHTML, like Gecko) Chrome/89.0.4389.114 Safari/537.36" etag="4IZzX4gEX9qPcVwuQJ9d" version="14.5.7" type="github">
  <diagram name="Page-1" id="197159a0-c6a4-9194-75a8-e4174976684c">
    <mxGraphModel dx="2595" dy="1450" grid="1" gridSize="10" guides="1" tooltips="1" connect="1" arrows="1" fold="1" page="1" pageScale="1.5" pageWidth="1169" pageHeight="826" background="none" math="0" shadow="0">
      <root>
        <mxCell id="0" style=";html=1;" />
        <mxCell id="1" style=";html=1;" parent="0" />
        <mxCell id="vH9NFisdyQAn9UlYE25B-1" value="" style="shape=cylinder3;whiteSpace=wrap;html=1;boundedLbl=1;backgroundOutline=1;size=15;fontSize=22;spacing=2;verticalAlign=top;" vertex="1" parent="1">
          <mxGeometry x="801" y="310" width="127" height="110" as="geometry" />
        </mxCell>
        <mxCell id="vH9NFisdyQAn9UlYE25B-2" value="" style="shape=cylinder3;whiteSpace=wrap;html=1;boundedLbl=1;backgroundOutline=1;size=15;fontSize=22;spacing=2;verticalAlign=top;" vertex="1" parent="1">
          <mxGeometry x="808" y="500" width="120" height="110" as="geometry" />
        </mxCell>
        <mxCell id="vH9NFisdyQAn9UlYE25B-5" value="" style="shape=cylinder3;whiteSpace=wrap;html=1;boundedLbl=1;backgroundOutline=1;size=15;fontSize=22;spacing=2;verticalAlign=top;" vertex="1" parent="1">
          <mxGeometry x="801" y="892" width="127" height="110" as="geometry" />
        </mxCell>
        <mxCell id="vH9NFisdyQAn9UlYE25B-8" value="" style="endArrow=none;html=1;fontSize=22;spacing=2;verticalAlign=top;" edge="1" parent="1">
          <mxGeometry width="50" height="50" relative="1" as="geometry">
            <mxPoint y="742" as="sourcePoint" />
            <mxPoint x="1750" y="740" as="targetPoint" />
            <Array as="points">
              <mxPoint x="1082" y="740" />
            </Array>
          </mxGeometry>
        </mxCell>
        <mxCell id="vH9NFisdyQAn9UlYE25B-11" value="" style="pointerEvents=1;shadow=0;dashed=0;html=1;strokeColor=none;fillColor=#4495D1;labelPosition=center;verticalLabelPosition=bottom;verticalAlign=top;align=center;outlineConnect=0;shape=mxgraph.veeam.laptop;fontSize=22;spacing=2;" vertex="1" parent="1">
          <mxGeometry x="411" y="120" width="110" height="90" as="geometry" />
        </mxCell>
        <mxCell id="vH9NFisdyQAn9UlYE25B-12" value="" style="pointerEvents=1;shadow=0;dashed=0;html=1;strokeColor=none;fillColor=#4495D1;labelPosition=center;verticalLabelPosition=bottom;verticalAlign=top;align=center;outlineConnect=0;shape=mxgraph.veeam.2d.esx_esxi;fontSize=22;spacing=2;" vertex="1" parent="1">
          <mxGeometry x="431" y="300" width="70" height="80" as="geometry" />
        </mxCell>
        <mxCell id="vH9NFisdyQAn9UlYE25B-13" value="&lt;font style=&quot;font-size: 25px;&quot;&gt;개발PC&lt;/font&gt;" style="text;html=1;strokeColor=none;fillColor=none;align=center;verticalAlign=top;whiteSpace=wrap;rounded=0;fontSize=25;spacing=2;" vertex="1" parent="1">
          <mxGeometry x="421" y="220" width="90" height="40" as="geometry" />
        </mxCell>
        <mxCell id="vH9NFisdyQAn9UlYE25B-15" value="WebLoginServer" style="text;html=1;strokeColor=none;fillColor=none;align=center;verticalAlign=top;whiteSpace=wrap;rounded=0;fontSize=25;spacing=2;" vertex="1" parent="1">
          <mxGeometry x="366" y="390" width="200" height="40" as="geometry" />
        </mxCell>
        <mxCell id="vH9NFisdyQAn9UlYE25B-16" value="" style="shadow=0;dashed=0;html=1;strokeColor=none;fillColor=#4495D1;labelPosition=center;verticalLabelPosition=bottom;verticalAlign=top;align=center;outlineConnect=0;shape=mxgraph.veeam.2d.file;fontSize=22;spacing=2;" vertex="1" parent="1">
          <mxGeometry x="431" y="500" width="70" height="80" as="geometry" />
        </mxCell>
        <mxCell id="vH9NFisdyQAn9UlYE25B-19" value="&lt;font style=&quot;font-size: 40px;&quot;&gt;개발환경&lt;/font&gt;" style="text;html=1;strokeColor=none;fillColor=none;align=center;verticalAlign=top;whiteSpace=wrap;rounded=0;fontSize=40;fontStyle=1;spacing=2;" vertex="1" parent="1">
          <mxGeometry x="52" y="50" width="210" height="60" as="geometry" />
        </mxCell>
        <mxCell id="vH9NFisdyQAn9UlYE25B-20" value="&lt;font style=&quot;font-size: 40px;&quot;&gt;운영환경&lt;/font&gt;" style="text;html=1;strokeColor=none;fillColor=none;align=center;verticalAlign=top;whiteSpace=wrap;rounded=0;fontSize=40;fontStyle=1;spacing=2;" vertex="1" parent="1">
          <mxGeometry x="52" y="772" width="210" height="60" as="geometry" />
        </mxCell>
        <mxCell id="vH9NFisdyQAn9UlYE25B-21" value="" style="pointerEvents=1;shadow=0;dashed=0;html=1;strokeColor=none;fillColor=#4495D1;labelPosition=center;verticalLabelPosition=bottom;verticalAlign=top;align=center;outlineConnect=0;shape=mxgraph.veeam.2d.esx_esxi;fontSize=22;spacing=2;" vertex="1" parent="1">
          <mxGeometry x="431" y="902" width="70" height="100" as="geometry" />
        </mxCell>
        <mxCell id="vH9NFisdyQAn9UlYE25B-22" value="운영WAS&lt;br&gt;171.16.1.63&lt;br&gt;" style="text;html=1;strokeColor=none;fillColor=none;align=center;verticalAlign=top;whiteSpace=wrap;rounded=0;fontSize=22;spacing=2;" vertex="1" parent="1">
          <mxGeometry x="365" y="1005" width="203" height="57" as="geometry" />
        </mxCell>
        <mxCell id="vH9NFisdyQAn9UlYE25B-25" value="" style="endArrow=classic;html=1;fontSize=22;spacing=2;verticalAlign=top;" edge="1" parent="1" source="vH9NFisdyQAn9UlYE25B-16">
          <mxGeometry width="50" height="50" relative="1" as="geometry">
            <mxPoint x="343" y="490" as="sourcePoint" />
            <mxPoint x="466" y="440" as="targetPoint" />
          </mxGeometry>
        </mxCell>
        <mxCell id="vH9NFisdyQAn9UlYE25B-26" value="" style="endArrow=none;html=1;fontSize=22;entryX=0;entryY=0;entryDx=0;entryDy=52.5;entryPerimeter=0;spacing=2;verticalAlign=top;" edge="1" parent="1" target="vH9NFisdyQAn9UlYE25B-5">
          <mxGeometry width="50" height="50" relative="1" as="geometry">
            <mxPoint x="501" y="945" as="sourcePoint" />
            <mxPoint x="393" y="1062" as="targetPoint" />
          </mxGeometry>
        </mxCell>
        <mxCell id="vH9NFisdyQAn9UlYE25B-27" value="" style="endArrow=none;html=1;fontSize=22;spacing=2;verticalAlign=top;" edge="1" parent="1">
          <mxGeometry width="50" height="50" relative="1" as="geometry">
            <mxPoint x="653" y="1292" as="sourcePoint" />
            <mxPoint x="653" y="942" as="targetPoint" />
          </mxGeometry>
        </mxCell>
        <mxCell id="vH9NFisdyQAn9UlYE25B-32" value="" style="endArrow=none;html=1;fontSize=22;entryX=0;entryY=0;entryDx=0;entryDy=52.5;entryPerimeter=0;spacing=2;verticalAlign=top;" edge="1" parent="1" target="vH9NFisdyQAn9UlYE25B-1">
          <mxGeometry width="50" height="50" relative="1" as="geometry">
            <mxPoint x="504" y="363" as="sourcePoint" />
            <mxPoint x="792" y="362.5" as="targetPoint" />
          </mxGeometry>
        </mxCell>
        <mxCell id="vH9NFisdyQAn9UlYE25B-33" value="" style="endArrow=none;html=1;fontSize=22;spacing=2;verticalAlign=top;" edge="1" parent="1">
          <mxGeometry width="50" height="50" relative="1" as="geometry">
            <mxPoint x="693" y="560" as="sourcePoint" />
            <mxPoint x="693" y="360" as="targetPoint" />
          </mxGeometry>
        </mxCell>
        <mxCell id="vH9NFisdyQAn9UlYE25B-34" value="" style="endArrow=none;html=1;fontSize=22;entryX=0;entryY=0.5;entryDx=0;entryDy=0;entryPerimeter=0;spacing=2;verticalAlign=top;" edge="1" parent="1">
          <mxGeometry width="50" height="50" relative="1" as="geometry">
            <mxPoint x="693" y="558" as="sourcePoint" />
            <mxPoint x="801" y="558" as="targetPoint" />
          </mxGeometry>
        </mxCell>
        <mxCell id="vH9NFisdyQAn9UlYE25B-35" value="HIRAPT" style="text;strokeColor=none;fillColor=none;html=1;fontSize=22;fontStyle=1;verticalAlign=top;align=center;spacing=2;" vertex="1" parent="1">
          <mxGeometry x="812" y="351" width="100" height="40" as="geometry" />
        </mxCell>
        <mxCell id="vH9NFisdyQAn9UlYE25B-36" value="DBRVDEV" style="text;strokeColor=none;fillColor=none;html=1;fontSize=22;fontStyle=1;verticalAlign=top;align=center;spacing=2;" vertex="1" parent="1">
          <mxGeometry x="815" y="541" width="100" height="40" as="geometry" />
        </mxCell>
        <mxCell id="vH9NFisdyQAn9UlYE25B-39" value="172.16.1.17" style="text;html=1;strokeColor=none;fillColor=none;align=center;verticalAlign=top;whiteSpace=wrap;rounded=0;fontSize=25;spacing=2;" vertex="1" parent="1">
          <mxGeometry x="765" y="1002" width="200" height="40" as="geometry" />
        </mxCell>
        <mxCell id="vH9NFisdyQAn9UlYE25B-41" value="Instance:DEVPT&lt;br&gt;DBMS_ID:hira_macm&lt;br&gt;TABLE:TBMAA001~TBMAA023&lt;br&gt;" style="text;html=1;strokeColor=none;fillColor=none;align=left;verticalAlign=middle;whiteSpace=wrap;rounded=0;fontSize=40;" vertex="1" parent="1">
          <mxGeometry x="1113" y="279.5" width="570" height="171" as="geometry" />
        </mxCell>
        <mxCell id="vH9NFisdyQAn9UlYE25B-45" value="" style="endArrow=none;dashed=1;html=1;fontSize=40;entryX=0;entryY=0.5;entryDx=0;entryDy=0;" edge="1" parent="1">
          <mxGeometry width="50" height="50" relative="1" as="geometry">
            <mxPoint x="928" y="360" as="sourcePoint" />
            <mxPoint x="1113" y="360.0000000000002" as="targetPoint" />
          </mxGeometry>
        </mxCell>
        <mxCell id="vH9NFisdyQAn9UlYE25B-46" value="&lt;br&gt;Instance: DBRVDEV&lt;br&gt;DBMS_ID: apr_macm&lt;br&gt;TABLE: TBJCA220, TBJCA130,&amp;nbsp; &amp;nbsp; &amp;nbsp; &amp;nbsp; &amp;nbsp; &amp;nbsp; &amp;nbsp; &amp;nbsp;TBJDA030" style="text;html=1;strokeColor=none;fillColor=none;align=left;verticalAlign=middle;whiteSpace=wrap;rounded=0;fontSize=40;" vertex="1" parent="1">
          <mxGeometry x="1123" y="456.5" width="580" height="171" as="geometry" />
        </mxCell>
        <mxCell id="vH9NFisdyQAn9UlYE25B-47" value="" style="endArrow=none;dashed=1;html=1;fontSize=40;entryX=0;entryY=0.5;entryDx=0;entryDy=0;" edge="1" parent="1">
          <mxGeometry width="50" height="50" relative="1" as="geometry">
            <mxPoint x="928" y="556" as="sourcePoint" />
            <mxPoint x="1123" y="556.0000000000002" as="targetPoint" />
          </mxGeometry>
        </mxCell>
        <mxCell id="vH9NFisdyQAn9UlYE25B-49" value="10.1.1.6" style="text;html=1;strokeColor=none;fillColor=none;align=center;verticalAlign=top;whiteSpace=wrap;rounded=0;fontSize=25;spacing=2;" vertex="1" parent="1">
          <mxGeometry x="767" y="430" width="200" height="40" as="geometry" />
        </mxCell>
        <mxCell id="vH9NFisdyQAn9UlYE25B-50" value="10.11.45.30" style="text;html=1;strokeColor=none;fillColor=none;align=center;verticalAlign=top;whiteSpace=wrap;rounded=0;fontSize=25;spacing=2;" vertex="1" parent="1">
          <mxGeometry x="767" y="619" width="200" height="40" as="geometry" />
        </mxCell>
        <mxCell id="vH9NFisdyQAn9UlYE25B-61" value="" style="shape=cylinder3;whiteSpace=wrap;html=1;boundedLbl=1;backgroundOutline=1;size=15;fontSize=22;spacing=2;verticalAlign=top;" vertex="1" parent="1">
          <mxGeometry x="803" y="1232" width="135" height="110" as="geometry" />
        </mxCell>
        <mxCell id="vH9NFisdyQAn9UlYE25B-62" value="HIRARV" style="text;strokeColor=none;fillColor=none;html=1;fontSize=22;fontStyle=1;verticalAlign=top;align=center;spacing=2;" vertex="1" parent="1">
          <mxGeometry x="819" y="1278" width="100" height="40" as="geometry" />
        </mxCell>
        <mxCell id="vH9NFisdyQAn9UlYE25B-63" value="10.11.45.30" style="text;html=1;strokeColor=none;fillColor=none;align=center;verticalAlign=top;whiteSpace=wrap;rounded=0;fontSize=25;spacing=2;" vertex="1" parent="1">
          <mxGeometry x="762" y="1351" width="200" height="40" as="geometry" />
        </mxCell>
        <mxCell id="vH9NFisdyQAn9UlYE25B-64" value="" style="endArrow=none;html=1;fontSize=22;exitX=0;exitY=0;exitDx=0;exitDy=52.5;exitPerimeter=0;spacing=2;verticalAlign=top;" edge="1" parent="1">
          <mxGeometry width="50" height="50" relative="1" as="geometry">
            <mxPoint x="801" y="1293" as="sourcePoint" />
            <mxPoint x="653" y="1293" as="targetPoint" />
          </mxGeometry>
        </mxCell>
        <mxCell id="vH9NFisdyQAn9UlYE25B-69" value="" style="shadow=0;dashed=0;html=1;strokeColor=none;fillColor=#4495D1;labelPosition=center;verticalLabelPosition=bottom;verticalAlign=top;align=center;outlineConnect=0;shape=mxgraph.veeam.2d.file;fontSize=22;spacing=2;" vertex="1" parent="1">
          <mxGeometry x="429.25" y="1148" width="70" height="80" as="geometry" />
        </mxCell>
        <mxCell id="vH9NFisdyQAn9UlYE25B-70" value="Source" style="text;html=1;strokeColor=none;fillColor=none;align=center;verticalAlign=top;whiteSpace=wrap;rounded=0;fontSize=26;spacing=2;" vertex="1" parent="1">
          <mxGeometry x="421" y="1232" width="86.5" height="30" as="geometry" />
        </mxCell>
        <mxCell id="vH9NFisdyQAn9UlYE25B-71" value="" style="endArrow=classic;html=1;fontSize=22;spacing=2;verticalAlign=top;" edge="1" parent="1" source="vH9NFisdyQAn9UlYE25B-69">
          <mxGeometry width="50" height="50" relative="1" as="geometry">
            <mxPoint x="341.25" y="1138" as="sourcePoint" />
            <mxPoint x="464.25" y="1068" as="targetPoint" />
          </mxGeometry>
        </mxCell>
        <mxCell id="vH9NFisdyQAn9UlYE25B-72" value="Source" style="text;html=1;strokeColor=none;fillColor=none;align=center;verticalAlign=top;whiteSpace=wrap;rounded=0;fontSize=26;spacing=2;" vertex="1" parent="1">
          <mxGeometry x="422.75" y="581" width="86.5" height="30" as="geometry" />
        </mxCell>
        <mxCell id="vH9NFisdyQAn9UlYE25B-75" value="Instance: HIRAPT&lt;br&gt;Host: DEVPT&lt;br&gt;DBMS_ID:hira_macm&lt;br&gt;TABLE:TBMAA001~TBMAA023" style="text;html=1;strokeColor=none;fillColor=none;align=left;verticalAlign=middle;whiteSpace=wrap;rounded=0;fontSize=40;" vertex="1" parent="1">
          <mxGeometry x="1163" y="861.5" width="570" height="171" as="geometry" />
        </mxCell>
        <mxCell id="vH9NFisdyQAn9UlYE25B-76" value="" style="endArrow=none;dashed=1;html=1;fontSize=40;entryX=0;entryY=0.5;entryDx=0;entryDy=0;exitX=1;exitY=0.5;exitDx=0;exitDy=0;exitPerimeter=0;" edge="1" parent="1" source="vH9NFisdyQAn9UlYE25B-5" target="vH9NFisdyQAn9UlYE25B-75">
          <mxGeometry width="50" height="50" relative="1" as="geometry">
            <mxPoint x="968" y="1042.5" as="sourcePoint" />
            <mxPoint x="1163" y="1042.5000000000002" as="targetPoint" />
          </mxGeometry>
        </mxCell>
        <mxCell id="vH9NFisdyQAn9UlYE25B-78" value="&lt;br&gt;Instance: HIRARV&lt;br&gt;DBMS_ID: apr_macm&lt;br&gt;TABLE: TBJCA220, TBJCA130,&amp;nbsp; &amp;nbsp; &amp;nbsp; &amp;nbsp; &amp;nbsp; &amp;nbsp; &amp;nbsp; &amp;nbsp;TBJDA030" style="text;html=1;strokeColor=none;fillColor=none;align=left;verticalAlign=middle;whiteSpace=wrap;rounded=0;fontSize=40;" vertex="1" parent="1">
          <mxGeometry x="1154.5" y="1162" width="587" height="240" as="geometry" />
        </mxCell>
        <mxCell id="vH9NFisdyQAn9UlYE25B-79" value="" style="endArrow=none;dashed=1;html=1;fontSize=40;entryX=0;entryY=0.5;entryDx=0;entryDy=0;exitX=1;exitY=0.25;exitDx=0;exitDy=0;" edge="1" parent="1">
          <mxGeometry width="50" height="50" relative="1" as="geometry">
            <mxPoint x="943" y="1282.5" as="sourcePoint" />
            <mxPoint x="1153" y="1279.5000000000002" as="targetPoint" />
          </mxGeometry>
        </mxCell>
        <mxCell id="vH9NFisdyQAn9UlYE25B-83" value="" style="rounded=0;whiteSpace=wrap;html=1;fontSize=25;labelBackgroundColor=none;fillColor=none;" vertex="1" parent="1">
          <mxGeometry x="360" y="80" width="210" height="580.5" as="geometry" />
        </mxCell>
      </root>
    </mxGraphModel>
  </diagram>
</mxfile>
